<mxfile host="Electron" modified="2024-03-27T19:58:30.961Z" agent="Mozilla/5.0 (Windows NT 10.0; Win64; x64) AppleWebKit/537.36 (KHTML, like Gecko) draw.io/24.0.4 Chrome/120.0.6099.109 Electron/28.1.0 Safari/537.36" etag="SKGbT9S_YcJqiGIdbGLV" version="24.0.4" type="device">
  <diagram id="C5RBs43oDa-KdzZeNtuy" name="Page-1">
    <mxGraphModel dx="682" dy="471" grid="1" gridSize="10" guides="1" tooltips="1" connect="1" arrows="1" fold="1" page="1" pageScale="1" pageWidth="827" pageHeight="1169" background="#FFF2CC" math="0" shadow="0">
      <root>
        <mxCell id="WIyWlLk6GJQsqaUBKTNV-0" />
        <mxCell id="WIyWlLk6GJQsqaUBKTNV-1" parent="WIyWlLk6GJQsqaUBKTNV-0" />
        <mxCell id="L9t3TZnKnSuacrHSOexU-0" value="&amp;lt;&amp;lt;abstract&amp;gt;&amp;gt;&lt;div&gt;Empleado&lt;/div&gt;" style="swimlane;fontStyle=1;align=center;verticalAlign=top;childLayout=stackLayout;horizontal=1;startSize=40;horizontalStack=0;resizeParent=1;resizeParentMax=0;resizeLast=0;collapsible=1;marginBottom=0;whiteSpace=wrap;html=1;rounded=1;shadow=1;fillColor=#9AC7BF;gradientColor=none;swimlaneFillColor=default;" parent="WIyWlLk6GJQsqaUBKTNV-1" vertex="1">
          <mxGeometry x="360" y="40" width="270" height="144" as="geometry" />
        </mxCell>
        <mxCell id="L9t3TZnKnSuacrHSOexU-3" value="+ sueldo(): Real" style="text;strokeColor=none;fillColor=none;align=left;verticalAlign=top;spacingLeft=4;spacingRight=4;overflow=hidden;rotatable=0;points=[[0,0.5],[1,0.5]];portConstraint=eastwest;whiteSpace=wrap;html=1;" parent="L9t3TZnKnSuacrHSOexU-0" vertex="1">
          <mxGeometry y="40" width="270" height="26" as="geometry" />
        </mxCell>
        <mxCell id="L9t3TZnKnSuacrHSOexU-31" value="+ calcularDescuentos(): Real" style="text;strokeColor=none;fillColor=none;align=left;verticalAlign=top;spacingLeft=4;spacingRight=4;overflow=hidden;rotatable=0;points=[[0,0.5],[1,0.5]];portConstraint=eastwest;whiteSpace=wrap;html=1;" parent="L9t3TZnKnSuacrHSOexU-0" vertex="1">
          <mxGeometry y="66" width="270" height="26" as="geometry" />
        </mxCell>
        <mxCell id="L9t3TZnKnSuacrHSOexU-32" value="+ &amp;lt;&amp;lt;abstract&amp;gt;&amp;gt; calcularSueldoBasico(): Real" style="text;strokeColor=none;fillColor=none;align=left;verticalAlign=top;spacingLeft=4;spacingRight=4;overflow=hidden;rotatable=0;points=[[0,0.5],[1,0.5]];portConstraint=eastwest;whiteSpace=wrap;html=1;" parent="L9t3TZnKnSuacrHSOexU-0" vertex="1">
          <mxGeometry y="92" width="270" height="26" as="geometry" />
        </mxCell>
        <mxCell id="L9t3TZnKnSuacrHSOexU-33" value="+ &amp;lt;&amp;lt;abstract&amp;gt;&amp;gt; calcularAdicional(): Real" style="text;strokeColor=none;fillColor=none;align=left;verticalAlign=top;spacingLeft=4;spacingRight=4;overflow=hidden;rotatable=0;points=[[0,0.5],[1,0.5]];portConstraint=eastwest;whiteSpace=wrap;html=1;" parent="L9t3TZnKnSuacrHSOexU-0" vertex="1">
          <mxGeometry y="118" width="270" height="26" as="geometry" />
        </mxCell>
        <mxCell id="L9t3TZnKnSuacrHSOexU-27" style="edgeStyle=none;curved=1;rounded=0;orthogonalLoop=1;jettySize=auto;html=1;fontSize=12;startSize=8;endSize=8;endArrow=block;endFill=0;strokeColor=#000000;" parent="WIyWlLk6GJQsqaUBKTNV-1" source="L9t3TZnKnSuacrHSOexU-4" target="L9t3TZnKnSuacrHSOexU-21" edge="1">
          <mxGeometry relative="1" as="geometry" />
        </mxCell>
        <mxCell id="L9t3TZnKnSuacrHSOexU-4" value="EmpleadoTemporario" style="swimlane;fontStyle=1;align=center;verticalAlign=top;childLayout=stackLayout;horizontal=1;startSize=26;horizontalStack=0;resizeParent=1;resizeParentMax=0;resizeLast=0;collapsible=1;marginBottom=0;whiteSpace=wrap;html=1;rounded=1;shadow=1;fillColor=#9AC7BF;gradientColor=none;swimlaneFillColor=default;" parent="WIyWlLk6GJQsqaUBKTNV-1" vertex="1">
          <mxGeometry x="20" y="490" width="260" height="152" as="geometry" />
        </mxCell>
        <mxCell id="L9t3TZnKnSuacrHSOexU-5" value="- hsTrabajadas: Integer" style="text;strokeColor=none;fillColor=none;align=left;verticalAlign=top;spacingLeft=4;spacingRight=4;overflow=hidden;rotatable=0;points=[[0,0.5],[1,0.5]];portConstraint=eastwest;whiteSpace=wrap;html=1;" parent="L9t3TZnKnSuacrHSOexU-4" vertex="1">
          <mxGeometry y="26" width="260" height="26" as="geometry" />
        </mxCell>
        <mxCell id="L9t3TZnKnSuacrHSOexU-6" value="" style="line;strokeWidth=1;fillColor=none;align=left;verticalAlign=middle;spacingTop=-1;spacingLeft=3;spacingRight=3;rotatable=0;labelPosition=right;points=[];portConstraint=eastwest;strokeColor=inherit;" parent="L9t3TZnKnSuacrHSOexU-4" vertex="1">
          <mxGeometry y="52" width="260" height="8" as="geometry" />
        </mxCell>
        <mxCell id="L9t3TZnKnSuacrHSOexU-7" value="+ &amp;lt;&amp;lt;create&amp;gt;&amp;gt; EmpleadoTemporario (hijos:integer, esCasado: boolean, horas: integer)" style="text;strokeColor=none;fillColor=none;align=left;verticalAlign=top;spacingLeft=4;spacingRight=4;overflow=hidden;rotatable=0;points=[[0,0.5],[1,0.5]];portConstraint=eastwest;whiteSpace=wrap;html=1;fontSize=11;" parent="L9t3TZnKnSuacrHSOexU-4" vertex="1">
          <mxGeometry y="60" width="260" height="40" as="geometry" />
        </mxCell>
        <mxCell id="L9t3TZnKnSuacrHSOexU-34" value="+ calcularSueldoBasico(): Real" style="text;strokeColor=none;fillColor=none;align=left;verticalAlign=top;spacingLeft=4;spacingRight=4;overflow=hidden;rotatable=0;points=[[0,0.5],[1,0.5]];portConstraint=eastwest;whiteSpace=wrap;html=1;" parent="L9t3TZnKnSuacrHSOexU-4" vertex="1">
          <mxGeometry y="100" width="260" height="26" as="geometry" />
        </mxCell>
        <mxCell id="L9t3TZnKnSuacrHSOexU-35" value="+ calcularAdicional(): Real" style="text;strokeColor=none;fillColor=none;align=left;verticalAlign=top;spacingLeft=4;spacingRight=4;overflow=hidden;rotatable=0;points=[[0,0.5],[1,0.5]];portConstraint=eastwest;whiteSpace=wrap;html=1;" parent="L9t3TZnKnSuacrHSOexU-4" vertex="1">
          <mxGeometry y="126" width="260" height="26" as="geometry" />
        </mxCell>
        <mxCell id="L9t3TZnKnSuacrHSOexU-28" style="edgeStyle=none;curved=1;rounded=0;orthogonalLoop=1;jettySize=auto;html=1;fontSize=12;startSize=8;endSize=8;strokeColor=#000000;align=center;verticalAlign=middle;fontFamily=Helvetica;fontColor=default;labelBackgroundColor=default;endArrow=block;endFill=0;" parent="WIyWlLk6GJQsqaUBKTNV-1" source="L9t3TZnKnSuacrHSOexU-8" target="L9t3TZnKnSuacrHSOexU-21" edge="1">
          <mxGeometry relative="1" as="geometry" />
        </mxCell>
        <mxCell id="L9t3TZnKnSuacrHSOexU-8" value="EmpleadoPlanta" style="swimlane;fontStyle=1;align=center;verticalAlign=top;childLayout=stackLayout;horizontal=1;startSize=26;horizontalStack=0;resizeParent=1;resizeParentMax=0;resizeLast=0;collapsible=1;marginBottom=0;whiteSpace=wrap;html=1;rounded=1;shadow=1;fillColor=#9AC7BF;gradientColor=none;swimlaneFillColor=default;" parent="WIyWlLk6GJQsqaUBKTNV-1" vertex="1">
          <mxGeometry x="319" y="490" width="291" height="152" as="geometry" />
        </mxCell>
        <mxCell id="L9t3TZnKnSuacrHSOexU-20" value="- antiguedad: Integer" style="text;strokeColor=none;fillColor=none;align=left;verticalAlign=top;spacingLeft=4;spacingRight=4;overflow=hidden;rotatable=0;points=[[0,0.5],[1,0.5]];portConstraint=eastwest;whiteSpace=wrap;html=1;" parent="L9t3TZnKnSuacrHSOexU-8" vertex="1">
          <mxGeometry y="26" width="291" height="26" as="geometry" />
        </mxCell>
        <mxCell id="L9t3TZnKnSuacrHSOexU-10" value="" style="line;strokeWidth=1;fillColor=none;align=left;verticalAlign=middle;spacingTop=-1;spacingLeft=3;spacingRight=3;rotatable=0;labelPosition=right;points=[];portConstraint=eastwest;strokeColor=inherit;" parent="L9t3TZnKnSuacrHSOexU-8" vertex="1">
          <mxGeometry y="52" width="291" height="8" as="geometry" />
        </mxCell>
        <mxCell id="L9t3TZnKnSuacrHSOexU-41" value="+ &amp;lt;&amp;lt;create&amp;gt;&amp;gt; EmpleadoPlanta(&lt;span style=&quot;font-size: 11px;&quot;&gt;hijos:integer, esCasado: boolean,&amp;nbsp;&lt;/span&gt;antiguedad: Integer)" style="text;strokeColor=none;fillColor=none;align=left;verticalAlign=top;spacingLeft=4;spacingRight=4;overflow=hidden;rotatable=0;points=[[0,0.5],[1,0.5]];portConstraint=eastwest;whiteSpace=wrap;html=1;fontSize=11;" parent="L9t3TZnKnSuacrHSOexU-8" vertex="1">
          <mxGeometry y="60" width="291" height="40" as="geometry" />
        </mxCell>
        <mxCell id="L9t3TZnKnSuacrHSOexU-36" value="+ calcularSueldoBasico(): Real" style="text;strokeColor=none;fillColor=none;align=left;verticalAlign=top;spacingLeft=4;spacingRight=4;overflow=hidden;rotatable=0;points=[[0,0.5],[1,0.5]];portConstraint=eastwest;whiteSpace=wrap;html=1;" parent="L9t3TZnKnSuacrHSOexU-8" vertex="1">
          <mxGeometry y="100" width="291" height="26" as="geometry" />
        </mxCell>
        <mxCell id="L9t3TZnKnSuacrHSOexU-37" value="+ calcularAdicional(): Real" style="text;strokeColor=none;fillColor=none;align=left;verticalAlign=top;spacingLeft=4;spacingRight=4;overflow=hidden;rotatable=0;points=[[0,0.5],[1,0.5]];portConstraint=eastwest;whiteSpace=wrap;html=1;" parent="L9t3TZnKnSuacrHSOexU-8" vertex="1">
          <mxGeometry y="126" width="291" height="26" as="geometry" />
        </mxCell>
        <mxCell id="L9t3TZnKnSuacrHSOexU-30" style="edgeStyle=none;curved=1;rounded=0;orthogonalLoop=1;jettySize=auto;html=1;fontSize=12;startSize=8;endSize=8;strokeColor=#000000;align=center;verticalAlign=middle;fontFamily=Helvetica;fontColor=default;labelBackgroundColor=default;endArrow=block;endFill=0;" parent="WIyWlLk6GJQsqaUBKTNV-1" source="L9t3TZnKnSuacrHSOexU-12" target="L9t3TZnKnSuacrHSOexU-0" edge="1">
          <mxGeometry relative="1" as="geometry" />
        </mxCell>
        <mxCell id="L9t3TZnKnSuacrHSOexU-12" value="EmpleadoPasante" style="swimlane;fontStyle=1;align=center;verticalAlign=top;childLayout=stackLayout;horizontal=1;startSize=26;horizontalStack=0;resizeParent=1;resizeParentMax=0;resizeLast=0;collapsible=1;marginBottom=0;whiteSpace=wrap;html=1;rounded=1;shadow=1;fillColor=#9AC7BF;gradientColor=none;swimlaneFillColor=default;" parent="WIyWlLk6GJQsqaUBKTNV-1" vertex="1">
          <mxGeometry x="510" y="240" width="260" height="152" as="geometry" />
        </mxCell>
        <mxCell id="L9t3TZnKnSuacrHSOexU-13" value="- cantidadDeExamenes: Integer" style="text;strokeColor=none;fillColor=none;align=left;verticalAlign=top;spacingLeft=4;spacingRight=4;overflow=hidden;rotatable=0;points=[[0,0.5],[1,0.5]];portConstraint=eastwest;whiteSpace=wrap;html=1;" parent="L9t3TZnKnSuacrHSOexU-12" vertex="1">
          <mxGeometry y="26" width="260" height="26" as="geometry" />
        </mxCell>
        <mxCell id="L9t3TZnKnSuacrHSOexU-14" value="" style="line;strokeWidth=1;fillColor=none;align=left;verticalAlign=middle;spacingTop=-1;spacingLeft=3;spacingRight=3;rotatable=0;labelPosition=right;points=[];portConstraint=eastwest;strokeColor=inherit;" parent="L9t3TZnKnSuacrHSOexU-12" vertex="1">
          <mxGeometry y="52" width="260" height="8" as="geometry" />
        </mxCell>
        <mxCell id="L9t3TZnKnSuacrHSOexU-42" value="+ &amp;lt;&amp;lt;create&amp;gt;&amp;gt; EmpleadoPasante(examenes : integer )" style="text;strokeColor=none;fillColor=none;align=left;verticalAlign=top;spacingLeft=4;spacingRight=4;overflow=hidden;rotatable=0;points=[[0,0.5],[1,0.5]];portConstraint=eastwest;whiteSpace=wrap;html=1;" parent="L9t3TZnKnSuacrHSOexU-12" vertex="1">
          <mxGeometry y="60" width="260" height="40" as="geometry" />
        </mxCell>
        <mxCell id="L9t3TZnKnSuacrHSOexU-38" value="+ calcularSueldoBasico(): Real" style="text;strokeColor=none;fillColor=none;align=left;verticalAlign=top;spacingLeft=4;spacingRight=4;overflow=hidden;rotatable=0;points=[[0,0.5],[1,0.5]];portConstraint=eastwest;whiteSpace=wrap;html=1;" parent="L9t3TZnKnSuacrHSOexU-12" vertex="1">
          <mxGeometry y="100" width="260" height="26" as="geometry" />
        </mxCell>
        <mxCell id="L9t3TZnKnSuacrHSOexU-39" value="+ calcularAdicional(): Real" style="text;strokeColor=none;fillColor=none;align=left;verticalAlign=top;spacingLeft=4;spacingRight=4;overflow=hidden;rotatable=0;points=[[0,0.5],[1,0.5]];portConstraint=eastwest;whiteSpace=wrap;html=1;" parent="L9t3TZnKnSuacrHSOexU-12" vertex="1">
          <mxGeometry y="126" width="260" height="26" as="geometry" />
        </mxCell>
        <mxCell id="L9t3TZnKnSuacrHSOexU-29" style="edgeStyle=none;curved=1;rounded=0;orthogonalLoop=1;jettySize=auto;html=1;fontSize=12;startSize=8;endSize=8;strokeColor=#000000;align=center;verticalAlign=middle;fontFamily=Helvetica;fontColor=default;labelBackgroundColor=default;endArrow=block;endFill=0;" parent="WIyWlLk6GJQsqaUBKTNV-1" source="L9t3TZnKnSuacrHSOexU-21" target="L9t3TZnKnSuacrHSOexU-0" edge="1">
          <mxGeometry relative="1" as="geometry" />
        </mxCell>
        <mxCell id="L9t3TZnKnSuacrHSOexU-21" value="&amp;lt;&amp;lt;abstract&amp;gt;&amp;gt;&lt;div&gt;EmpleadoFamilia&lt;/div&gt;" style="swimlane;fontStyle=1;align=center;verticalAlign=top;childLayout=stackLayout;horizontal=1;startSize=40;horizontalStack=0;resizeParent=1;resizeParentMax=0;resizeLast=0;collapsible=1;marginBottom=0;whiteSpace=wrap;html=1;rounded=1;shadow=1;fillColor=#9AC7BF;gradientColor=none;swimlaneFillColor=default;" parent="WIyWlLk6GJQsqaUBKTNV-1" vertex="1">
          <mxGeometry x="200" y="240" width="250" height="220" as="geometry" />
        </mxCell>
        <mxCell id="L9t3TZnKnSuacrHSOexU-23" value="- esCasado: Boolean" style="text;strokeColor=none;fillColor=none;align=left;verticalAlign=top;spacingLeft=4;spacingRight=4;overflow=hidden;rotatable=0;points=[[0,0.5],[1,0.5]];portConstraint=eastwest;whiteSpace=wrap;html=1;" parent="L9t3TZnKnSuacrHSOexU-21" vertex="1">
          <mxGeometry y="40" width="250" height="26" as="geometry" />
        </mxCell>
        <mxCell id="L9t3TZnKnSuacrHSOexU-24" value="- cantidadDeHijos: Integer" style="text;strokeColor=none;fillColor=none;align=left;verticalAlign=top;spacingLeft=4;spacingRight=4;overflow=hidden;rotatable=0;points=[[0,0.5],[1,0.5]];portConstraint=eastwest;whiteSpace=wrap;html=1;" parent="L9t3TZnKnSuacrHSOexU-21" vertex="1">
          <mxGeometry y="66" width="250" height="26" as="geometry" />
        </mxCell>
        <mxCell id="L9t3TZnKnSuacrHSOexU-25" value="" style="line;strokeWidth=1;fillColor=none;align=left;verticalAlign=middle;spacingTop=-1;spacingLeft=3;spacingRight=3;rotatable=0;labelPosition=right;points=[];portConstraint=eastwest;strokeColor=inherit;" parent="L9t3TZnKnSuacrHSOexU-21" vertex="1">
          <mxGeometry y="92" width="250" height="8" as="geometry" />
        </mxCell>
        <mxCell id="dUJwgxcbdtSE618tNOa--1" value="&amp;lt;&amp;lt;create&amp;gt;&amp;gt; EmpleadoFamilia(hijos: integer, esCasado : boolean)" style="text;strokeColor=none;fillColor=none;align=left;verticalAlign=middle;spacingLeft=4;spacingRight=4;overflow=hidden;points=[[0,0.5],[1,0.5]];portConstraint=eastwest;rotatable=0;whiteSpace=wrap;html=1;fontFamily=Helvetica;" vertex="1" parent="L9t3TZnKnSuacrHSOexU-21">
          <mxGeometry y="100" width="250" height="30" as="geometry" />
        </mxCell>
        <mxCell id="L9t3TZnKnSuacrHSOexU-26" value="# calcularCasado(): Real" style="text;strokeColor=none;fillColor=none;align=left;verticalAlign=top;spacingLeft=4;spacingRight=4;overflow=hidden;rotatable=0;points=[[0,0.5],[1,0.5]];portConstraint=eastwest;whiteSpace=wrap;html=1;" parent="L9t3TZnKnSuacrHSOexU-21" vertex="1">
          <mxGeometry y="130" width="250" height="26" as="geometry" />
        </mxCell>
        <mxCell id="dUJwgxcbdtSE618tNOa--0" value="&lt;span style=&quot;font-family: Helvetica;&quot;&gt;&amp;nbsp;# calcularHijos(): Real&lt;/span&gt;" style="text;html=1;align=left;verticalAlign=middle;whiteSpace=wrap;rounded=0;fontFamily=Architects Daughter;fontSource=https%3A%2F%2Ffonts.googleapis.com%2Fcss%3Ffamily%3DArchitects%2BDaughter;" vertex="1" parent="L9t3TZnKnSuacrHSOexU-21">
          <mxGeometry y="156" width="250" height="30" as="geometry" />
        </mxCell>
        <mxCell id="L9t3TZnKnSuacrHSOexU-40" value="&lt;div&gt;# calcularAdicional(): Real&lt;/div&gt;" style="text;strokeColor=none;fillColor=none;align=left;verticalAlign=top;spacingLeft=4;spacingRight=4;overflow=hidden;rotatable=0;points=[[0,0.5],[1,0.5]];portConstraint=eastwest;whiteSpace=wrap;html=1;" parent="L9t3TZnKnSuacrHSOexU-21" vertex="1">
          <mxGeometry y="186" width="250" height="34" as="geometry" />
        </mxCell>
      </root>
    </mxGraphModel>
  </diagram>
</mxfile>
